<svg t="1694614893449" class="icon" viewBox="0 0 1024 1024" version="1.1" xmlns="http://www.w3.org/2000/svg"
  p-id="17305" width="128" height="128">
  <path
    d="M930.504348 146.921739C734.608696 146.921739 538.713043 35.617391 512 0 485.286957 35.617391 289.391304 146.921739 93.495652 146.921739H66.782609v512c8.904348 97.947826 8.904348 102.4 75.686956 178.086957 84.591304 89.043478 311.652174 186.991304 369.530435 186.991304 57.878261 0 284.93913-89.043478 369.530435-173.634783 71.234783-75.686957 71.234783-80.13913 75.686956-178.086956V146.921739h-26.713043z m-44.521739 516.452174v8.904348c0 84.591304-8.904348 75.686957-57.878261 129.113043-71.234783 71.234783-271.582609 146.921739-311.652174 151.373913-40.069565-8.904348-249.321739-89.043478-320.556522-160.27826-48.973913-53.426087-48.973913-40.069565-53.426087-129.113044v-8.904348-440.765217C280.486957 209.252174 436.313043 138.017391 512 89.043478c75.686957 48.973913 231.513043 120.208696 373.982609 124.66087v449.669565zM338.365217 489.73913c-13.356522-13.356522-35.617391-13.356522-48.973913 0-13.356522 13.356522-13.356522 35.617391 0 48.973913l138.017392 138.017392c8.904348 8.904348 22.26087 8.904348 26.713043 8.904348 13.356522 0 22.26087 0 13.356522-8.904348l244.869565-244.869565c13.356522-13.356522 13.356522-35.617391 0-48.973913-13.356522-13.356522-35.617391-13.356522-48.973913 0l-213.704348 213.704347L338.365217 489.73913z"
    fill="#3D3D3D" p-id="17306"></path>
</svg>